<svg width="64" height="64" viewBox="0 0 64 64" fill="none" xmlns="http://www.w3.org/2000/svg">
  <rect width="64" height="64" rx="18" fill="#244B59"/>
  <rect x="4" y="4" width="56" height="56" rx="14" stroke="#91B6C1" stroke-opacity="0.45" stroke-width="2"/>
  <path d="M24.6094 22.7266C22.0573 22.7266 20.1719 24.5169 20.1719 27.1484V36.8516C20.1719 39.4831 22.0573 41.2734 24.6094 41.2734H31.7891V37.9453H25.3594C24.0495 37.9453 23.5 37.2214 23.5 36.0703V27.9297C23.5 26.7786 24.0495 26.0547 25.3594 26.0547H31.7891V22.7266H24.6094Z" fill="#F6FBFD"/>
  <path d="M34.3672 22.7266V41.2734H37.6953V34.6875H41.1797C44.8547 34.6875 47.2578 32.4427 47.2578 28.6914C47.2578 24.9714 44.8547 22.7266 41.1797 22.7266H34.3672ZM37.6953 25.9766H40.6641C42.6047 25.9766 43.8516 27.0018 43.8516 28.6914C43.8516 30.4122 42.6047 31.4531 40.6641 31.4531H37.6953V25.9766Z" fill="#F6FBFD"/>
</svg>
